<svg xmlns="http://www.w3.org/2000/svg" viewBox="0 0 185 25" data-testid="logo" class="sc-dcgxYM sc-iukwUI htkieq kJtyVA" fill="rgb(240, 185, 11)"><path fill-rule="evenodd" d="M38.98 15.784v.047c0 2.377-1.958 3.588-4.897 3.565h-6.226V6.324h6.086c2.659 0 4.315 1.328 4.315 3.379v.046c0 1.468-.793 2.307-1.726 2.82 1.516.582 2.449 1.468 2.449 3.215zm-5.666-4.17c1.282 0 2.075-.397 2.075-1.375v-.047c0-.862-.676-1.351-1.889-1.351h-2.845v2.773h2.659zm.77 5.289c1.258 0 2.028-.443 2.028-1.421v-.047c0-.886-.653-1.421-2.122-1.421h-3.335v2.889h3.428zM45.02 6.347V19.42h-2.892V6.347h2.892zm15.484 0V19.42h-2.448l-6.343-8.318v8.318h-2.846V6.347h2.66l6.132 8.063V6.347h2.846zm10.331-.093l5.62 13.165h-3.054l-1.19-2.936h-5.526l-1.19 2.936h-2.938l5.62-13.165h2.659zm-3.101 7.69h3.475l-1.726-4.241-1.75 4.24zm22.434-7.597V19.42h-2.448l-6.344-8.318v8.318h-2.845V6.347h2.659l6.133 8.063V6.347h2.845zm13.037 9.111l1.842 1.84c-1.353 1.446-2.845 2.331-5.364 2.331-3.848 0-6.716-2.983-6.716-6.734v-.047c0-3.704 2.822-6.757 6.833-6.757 2.472 0 3.941.839 5.154 2.027l-1.843 2.12c-1.026-.908-2.052-1.467-3.358-1.467-2.215 0-3.801 1.84-3.801 4.077v.047c0 2.237 1.562 4.101 3.801 4.101 1.516 0 2.426-.606 3.452-1.538zm14.132 1.398v2.54h-9.958V6.324h9.865v2.563h-7.02v2.657h6.18v2.563h-6.18v2.75h7.113zM10.343.942L4 4.6 6.332 5.95l4.01-2.306 4.012 2.306L16.686 4.6 10.343.942zm4.01 6.92l2.333 1.351v2.703l-4.011 2.307v4.614l-2.332 1.351-2.332-1.351v-4.614L4 11.916V9.213l2.332-1.351 4.01 2.307 4.012-2.307zm2.333 5.965v2.703l-2.332 1.351v-2.703l2.332-1.35zm-2.355 5.965l4.01-2.307v-4.613l2.333-1.352v7.317l-6.343 3.658v-2.703zm4.01-11.534L16.01 6.907l2.332-1.352 2.332 1.352V9.61l-2.332 1.351V8.258zM8.012 23.474V20.77l2.332 1.351 2.332-1.351v2.703l-2.332 1.351-2.332-1.351zM6.33 17.88L4 16.53v-2.703l2.332 1.351v2.703zm4.012-9.623L8.01 6.907l2.332-1.352 2.332 1.352-2.332 1.351zM4.676 6.907L2.344 8.258v2.703L.012 9.61V6.907l2.332-1.352 2.332 1.352zM.012 11.52l2.332 1.352v4.613l4.01 2.307v2.703L.013 18.837V11.52zm124.87 1.486c0 3.775 2.845 6.758 6.67 6.758 2.472 0 3.964-.91 5.317-2.33l-1.469-1.492c-1.12 1.049-2.146 1.701-3.755 1.701-2.495 0-4.314-2.097-4.314-4.683 0-2.587 1.796-4.637 4.314-4.637 1.493 0 2.612.652 3.662 1.63l1.469-1.7c-1.26-1.188-2.705-2.027-5.131-2.027-3.964 0-6.763 3.052-6.763 6.78zm16.301 6.525v-5.523h6.25v5.523h2.309V6.435h-2.309v5.453h-6.25V6.435h-2.308v13.096h2.308zm21.619 0h2.425L159.42 6.342h-2.122l-5.76 13.189h2.355l1.353-3.17h6.203l1.353 3.17zm-6.693-5.196l2.238-5.243 2.262 5.242h-4.5zm13.292 5.196V6.435h-2.308v13.096h2.308zm14.622-13.096h-2.285v9.041l-7.02-9.04h-2.122V19.53h2.262v-9.32l7.23 9.32h1.935V6.435z" clip-rule="evenodd"></path></svg>