<svg width="231" height="200" viewBox="0 0 231 200" fill="none" xmlns="http://www.w3.org/2000/svg">
<path fill-rule="evenodd" clip-rule="evenodd" d="M160.15 108.758L228.168 179.167C228.984 180.001 229.634 180.992 230.081 182.086C230.527 183.179 230.761 184.353 230.769 185.54C230.777 186.727 230.559 187.904 230.127 189.004C229.696 190.104 229.059 191.105 228.253 191.95L223.263 197.098C221.86 198.62 220.007 199.613 217.998 199.921C216.67 200.104 215.32 199.967 214.053 199.521C212.785 199.074 211.635 198.33 210.692 197.347L127.633 111.368C126.188 109.875 125.043 108.103 124.261 106.152C123.479 104.201 123.077 102.109 123.077 99.9966C123.077 97.8843 123.479 95.7928 124.261 93.8416C125.043 91.8904 126.188 90.118 127.633 88.6257L210.692 2.64663C211.501 1.80763 212.462 1.14199 213.52 0.687853C214.578 0.233712 215.712 0 216.857 0C218.002 0 219.136 0.233712 220.194 0.687853C221.252 1.14199 222.213 1.80763 223.023 2.64663L228.168 8.06136C228.978 8.89901 229.621 9.89381 230.06 10.989C230.499 12.0841 230.724 13.258 230.724 14.4436C230.724 15.6292 230.499 16.8031 230.06 17.8983C229.621 18.9934 228.978 19.9883 228.168 20.826L160.15 91.2532C157.919 93.5808 156.667 96.7267 156.667 100.006C156.667 103.284 157.919 106.43 160.15 108.758ZM70.6167 91.3279L2.62479 20.8999C1.79976 20.0656 1.14291 19.0701 0.692358 17.9709C0.241803 16.8718 0.0065126 15.6909 0.000133286 14.4968C-0.00624602 13.3028 0.216429 12.1192 0.655212 11.0149C1.094 9.91068 1.74019 8.90772 2.55625 8.06412L7.52792 2.89779C8.94371 1.38581 10.7979 0.394596 12.8082 0.0750439C14.1345 -0.102903 15.4827 0.0366206 16.7488 0.482906C18.0149 0.929192 19.1653 1.67026 20.1114 2.64921L103.138 88.6295C104.582 90.1218 105.727 91.8942 106.509 93.8454C107.29 95.7966 107.692 97.8882 107.692 100.001C107.692 102.113 107.29 104.204 106.509 106.156C105.727 108.107 104.582 109.879 103.138 111.372L20.1114 197.352C19.301 198.191 18.3389 198.857 17.2799 199.312C16.2209 199.766 15.0859 200 13.9396 200C12.7934 200 11.6583 199.766 10.5994 199.312C9.54041 198.857 8.57825 198.191 7.7679 197.352L2.62479 192.026C1.81407 191.187 1.17095 190.19 0.732173 189.094C0.293392 187.997 0.0675717 186.822 0.0675717 185.634C0.0675717 184.447 0.293392 183.272 0.732173 182.175C1.17095 181.079 1.81407 180.082 2.62479 179.243L70.6167 108.833C72.8466 106.505 74.0979 103.359 74.0979 100.08C74.0979 96.8016 72.8466 93.6556 70.6167 91.3279Z" fill="black"/>
</svg>
