<svg width="107" height="48" viewBox="0 0 107 48" fill="none" xmlns="http://www.w3.org/2000/svg">
<g clip-path="url(#clip0_613_256)">
<path d="M5.5027 19.4194C5.97705 20.4334 7.15107 22.4376 7.15107 22.4376L20.7235 0L7.47719 9.25015C6.68789 9.77672 6.04033 10.4895 5.59164 11.3255C4.98834 12.5868 4.6678 13.9646 4.65244 15.3626C4.63707 16.7607 4.92726 18.1452 5.5027 19.4194Z" fill="url(#paint0_linear_613_256)"/>
<path d="M0.124309 26.8077C0.273867 28.9539 0.880247 31.0435 1.90284 32.9364C2.92544 34.8293 4.34065 36.4818 6.05371 37.7834L20.7053 48C20.7053 48 11.5384 34.7889 3.80647 21.643C3.02369 20.2542 2.49745 18.7357 2.25296 17.1603C2.14473 16.4469 2.14473 15.7212 2.25296 15.0078C2.05136 15.3814 1.66002 16.1463 1.66002 16.1463C0.876033 17.7453 0.3421 19.4551 0.0768734 21.2161C-0.0757885 23.0776 -0.0599122 24.9491 0.124309 26.8077Z" fill="url(#paint1_linear_613_256)"/>
<path d="M37.5035 28.5807C37.0291 27.5667 35.8551 25.5625 35.8551 25.5625L22.2827 48L35.529 38.7558C36.3183 38.2293 36.9658 37.5165 37.4145 36.6805C38.0187 35.4184 38.3398 34.0396 38.3551 32.6404C38.3705 31.2413 38.0798 29.8557 37.5035 28.5807Z" fill="url(#paint2_linear_613_256)"/>
<path d="M42.8812 21.1923C42.7317 19.0461 42.1253 16.9566 41.1027 15.0637C40.0801 13.1708 38.6649 11.5182 36.9518 10.2167L22.3003 0C22.3003 0 31.4612 13.2111 39.1991 26.357C39.9798 27.7463 40.504 29.2648 40.7467 30.8398C40.8549 31.5532 40.8549 32.2788 40.7467 32.9922C40.9483 32.6187 41.3396 31.8537 41.3396 31.8537C42.1236 30.2548 42.6575 28.5449 42.9227 26.7839C43.0774 24.9226 43.0635 23.0512 42.8812 21.1923Z" fill="url(#paint3_linear_613_256)"/>
<g style="mix-blend-mode:color">
<path d="M5.59121 11.3255C6.03991 10.4895 6.68747 9.77672 7.47676 9.25015L20.723 0L7.15064 22.4435C7.15064 22.4435 5.96477 20.4393 5.50227 19.4253C4.92593 18.1503 4.63527 16.7647 4.65063 15.3656C4.666 13.9664 4.98702 12.5876 5.59121 11.3255ZM0.124309 26.8077C0.273867 28.9539 0.880247 31.0434 1.90284 32.9363C2.92544 34.8292 4.34065 36.4818 6.05371 37.7833L20.7052 48C20.7052 48 11.5384 34.7889 3.80646 21.643C3.02369 20.2541 2.49745 18.7356 2.25296 17.1602C2.14473 16.4468 2.14473 15.7212 2.25296 15.0078C2.05136 15.3813 1.66002 16.1463 1.66002 16.1463C0.876032 17.7452 0.3421 19.4551 0.0768734 21.2161C-0.0757885 23.0775 -0.0599122 24.949 0.124309 26.8077ZM37.4795 28.5865C37.0052 27.5726 35.8311 25.5684 35.8311 25.5684L22.2825 48L35.5287 38.7558C36.318 38.2292 36.9656 37.5165 37.4143 36.6804C38.0185 35.4184 38.3395 34.0395 38.3549 32.6404C38.3702 31.2412 38.0796 29.8556 37.5032 28.5806L37.4795 28.5865ZM42.8575 21.1983C42.7079 19.052 42.1015 16.9625 41.0789 15.0696C40.0563 13.1767 38.6411 11.5242 36.9281 10.2226L22.3003 0C22.3003 0 31.4612 13.2111 39.199 26.357C39.9798 27.7463 40.504 29.2648 40.7466 30.8398C40.8548 31.5532 40.8548 32.2788 40.7466 32.9922C40.9482 32.6187 41.3396 31.8537 41.3396 31.8537C42.1235 30.2548 42.6575 28.5449 42.9227 26.7839C43.0773 24.9226 43.0634 23.0512 42.8812 21.1923L42.8575 21.1983Z" fill="url(#paint4_linear_613_256)"/>
</g>
</g>
<path d="M56.872 35V15.63H69.742V18.75H60.408V23.716H69.222V26.836H60.408V31.88H69.742V35H56.872ZM72.0749 35V15.63H74.8309L85.4909 29.982L84.0609 30.268V15.63H87.5969V35H84.8149L74.3109 20.544L75.6109 20.258V35H72.0749ZM98.0024 35.312C96.7717 35.312 95.6277 35.0867 94.5704 34.636C93.5304 34.1853 92.629 33.5613 91.8664 32.764C91.121 31.9493 90.575 31.0047 90.2284 29.93L93.1664 28.656C93.6344 29.7653 94.3104 30.6407 95.1944 31.282C96.0784 31.906 97.075 32.218 98.1844 32.218C98.8084 32.218 99.3457 32.1227 99.7964 31.932C100.264 31.724 100.62 31.4467 100.862 31.1C101.122 30.7533 101.252 30.3373 101.252 29.852C101.252 29.28 101.079 28.812 100.732 28.448C100.403 28.0667 99.9004 27.772 99.2244 27.564L95.5064 26.368C93.9984 25.9 92.863 25.198 92.1004 24.262C91.3377 23.326 90.9564 22.2253 90.9564 20.96C90.9564 19.8507 91.225 18.8713 91.7624 18.022C92.317 17.1727 93.0797 16.514 94.0504 16.046C95.0384 15.5607 96.165 15.318 97.4304 15.318C98.5917 15.318 99.6577 15.526 100.628 15.942C101.599 16.3407 102.431 16.904 103.124 17.632C103.835 18.3427 104.364 19.1833 104.71 20.154L101.798 21.454C101.417 20.4833 100.845 19.738 100.082 19.218C99.3197 18.6807 98.4357 18.412 97.4304 18.412C96.841 18.412 96.321 18.516 95.8704 18.724C95.4197 18.9147 95.0644 19.192 94.8044 19.556C94.5617 19.9027 94.4404 20.3187 94.4404 20.804C94.4404 21.3413 94.6137 21.818 94.9604 22.234C95.307 22.6327 95.8357 22.9447 96.5464 23.17L100.108 24.288C101.651 24.7907 102.804 25.484 103.566 26.368C104.346 27.252 104.736 28.344 104.736 29.644C104.736 30.7533 104.45 31.7327 103.878 32.582C103.306 33.4313 102.518 34.0987 101.512 34.584C100.507 35.0693 99.337 35.312 98.0024 35.312Z" fill="url(#paint5_linear_613_256)"/>
<defs>
<linearGradient id="paint0_linear_613_256" x1="15.3569" y1="25.0968" x2="-9.36427" y2="-6.07045" gradientUnits="userSpaceOnUse">
<stop stop-color="#44BCF0"/>
<stop offset="0.378795" stop-color="#7298F8"/>
<stop offset="1" stop-color="#A099FF"/>
</linearGradient>
<linearGradient id="paint1_linear_613_256" x1="13.7825" y1="51.9102" x2="-23.3589" y2="10.8297" gradientUnits="userSpaceOnUse">
<stop stop-color="#44BCF0"/>
<stop offset="0.378795" stop-color="#7298F8"/>
<stop offset="1" stop-color="#A099FF"/>
</linearGradient>
<linearGradient id="paint2_linear_613_256" x1="32.9887" y1="50.6593" x2="8.268" y2="19.49" gradientUnits="userSpaceOnUse">
<stop stop-color="#44BCF0"/>
<stop offset="0.378795" stop-color="#7298F8"/>
<stop offset="1" stop-color="#A099FF"/>
</linearGradient>
<linearGradient id="paint3_linear_613_256" x1="36.1075" y1="36.9024" x2="-1.03447" y2="-4.17235" gradientUnits="userSpaceOnUse">
<stop stop-color="#44BCF0"/>
<stop offset="0.378795" stop-color="#7298F8"/>
<stop offset="1" stop-color="#A099FF"/>
</linearGradient>
<linearGradient id="paint4_linear_613_256" x1="28.652" y1="53.6889" x2="-20.4492" y2="-23.8342" gradientUnits="userSpaceOnUse">
<stop stop-color="#44BCF0"/>
<stop offset="0.378795" stop-color="#7298F8"/>
<stop offset="1" stop-color="#A099FF"/>
</linearGradient>
<linearGradient id="paint5_linear_613_256" x1="89.6364" y1="44.9111" x2="65.8087" y2="-21.1759" gradientUnits="userSpaceOnUse">
<stop stop-color="#44BCF0"/>
<stop offset="0.378795" stop-color="#7298F8"/>
<stop offset="1" stop-color="#A099FF"/>
</linearGradient>
<clipPath id="clip0_613_256">
<rect width="43" height="48" fill="white"/>
</clipPath>
</defs>
</svg>
