<svg width="493" height="128" viewBox="0 0 493 128" fill="none" xmlns="http://www.w3.org/2000/svg">
<path d="M44.9555 1.22614C48.0665 -0.408713 52.8002 -0.408713 55.9112 1.22614L87.6562 17.9083C89.5298 18.8929 90.5588 20.3601 90.7432 21.8747L90.7734 21.8747V105.728C90.7322 107.38 89.6935 109.021 87.6562 110.092L55.9112 126.774C52.8002 128.409 48.0665 128.409 44.9555 126.774L13.2106 110.092C11.1818 109.026 10.2082 107.373 10.16 105.728C10.1552 105.566 10.1546 105.431 10.1592 105.319L10.159 22.4133C10.1558 22.3225 10.1555 22.2318 10.1581 22.1415L10.16 21.8747L10.1742 21.8746C10.3152 20.3434 11.2975 18.9137 13.2106 17.9083L44.9555 1.22614ZM85.776 68.656L55.9112 84.3502C52.8002 85.9851 48.0665 85.9851 44.9555 84.3502L15.156 68.691V105.562L44.9555 121.139C46.6382 122.034 48.3847 122.906 50.0924 123.017L50.4334 123.028C52.2129 123.034 53.9405 122.135 55.6924 121.284L85.776 105.428V68.656ZM4.9967 103.905C4.9967 107.117 5.37199 109.229 6.11712 110.717C6.73472 111.95 7.66138 112.892 9.35341 114.039L9.45 114.104C9.82133 114.353 10.2304 114.614 10.7283 114.92L11.3155 115.278L13.1186 116.361L10.5325 120.615L8.51434 119.402L8.17512 119.195C7.59159 118.836 7.10795 118.529 6.65683 118.226C1.8345 114.991 0.0360243 111.465 0.000537036 104.128L0 103.905H4.9967ZM47.9343 46.1808C47.7032 46.2598 47.4866 46.3511 47.2891 46.4549L15.5442 63.1371C15.5109 63.1546 15.4791 63.1719 15.4489 63.189L15.422 63.2046L15.4718 63.2329L15.5442 63.272L47.2891 79.9542C47.4866 80.058 47.7032 80.1493 47.9343 80.2283V46.1808ZM52.9325 46.1808V80.2283C53.1636 80.1493 53.3802 80.058 53.5776 79.9542L85.3226 63.272C85.3559 63.2545 85.3877 63.2372 85.4179 63.2201L85.4448 63.2046L85.3949 63.1762L85.3226 63.1371L53.5776 46.4549C53.3802 46.3511 53.1636 46.2598 52.9325 46.1808ZM85.776 27.823L57.299 42.788L85.776 57.753V27.823ZM15.156 27.858V57.718L43.567 42.788L15.156 27.858ZM53.5776 5.62216C51.9268 4.75463 48.94 4.75463 47.2891 5.62216L15.5442 22.3044C15.5109 22.3219 15.4791 22.3392 15.4489 22.3563L15.422 22.3718L15.4718 22.4002L15.5442 22.4393L47.2891 39.1215C48.94 39.989 51.9268 39.989 53.5776 39.1215L85.3226 22.4393C85.3559 22.4218 85.3877 22.4045 85.4179 22.3873L85.4448 22.3718L85.3949 22.3434L85.3226 22.3044L53.5776 5.62216ZM90.4675 7.45154L92.4857 8.66424L92.8249 8.87145C93.4084 9.22982 93.892 9.5377 94.3432 9.84031C99.1655 13.075 100.964 16.6017 100.999 23.9381L101 24.1616H96.0033C96.0033 20.9488 95.628 18.8372 94.8829 17.3495C94.2653 16.1165 93.3386 15.1742 91.6466 14.0276L91.55 13.9625C91.1787 13.7134 90.7696 13.4525 90.2717 13.1458L89.6845 12.788L87.8814 11.7054L90.4675 7.45154Z" fill="#1969FF"/>
<path d="M151.76 102.232V55.4685H164.728V46.9063H151.76V40.759C151.76 33.8068 154.801 30.3307 160.882 30.3307C162.64 30.3307 164.509 30.6234 166.487 31.2088V22.0977C164.069 21.3659 161.395 21 158.464 21C152.823 21 148.445 22.61 145.331 25.83C142.217 29.05 140.66 33.7336 140.66 39.8809V46.9063H130V55.4685H140.66V102.232H151.76ZM196.819 103C201.069 103 204.787 102.122 207.974 100.365C211.161 98.6091 213.561 96.0843 215.173 92.7912V102.232H226.163V46.9063H215.173V55.9076C213.487 52.6145 211.07 50.0714 207.919 48.2784C204.769 46.4855 201.069 45.589 196.819 45.589C192.057 45.589 187.807 46.7965 184.071 49.2115C180.334 51.6265 177.422 55.0295 175.334 59.4203C173.246 63.8112 172.202 68.8608 172.202 74.5689C172.202 80.2771 173.227 85.2718 175.279 89.5529C177.33 93.834 180.206 97.1455 183.906 99.4873C187.606 101.829 191.91 103 196.819 103ZM199.457 94.2182C194.401 94.2182 190.463 92.4984 187.643 89.0589C184.822 85.6194 183.411 80.7894 183.411 74.5689C183.411 68.2753 184.822 63.3539 187.643 59.8046C190.463 56.2552 194.365 54.4806 199.347 54.4806C204.402 54.4806 208.304 56.2004 211.051 59.6399C213.799 63.0794 215.173 67.9826 215.173 74.3494C215.173 80.643 213.799 85.5279 211.051 89.004C208.304 92.4801 204.439 94.2182 199.457 94.2182ZM253.418 102.232V70.7269C253.418 65.8237 254.828 61.9085 257.649 58.9813C260.47 56.054 264.225 54.5904 268.914 54.5904C273.017 54.5904 276.002 55.6881 277.871 57.8835C279.739 60.079 280.673 63.5917 280.673 68.4217V102.232H291.773V67.7631C291.773 52.9804 285.142 45.589 271.881 45.589C267.632 45.589 263.84 46.5221 260.506 48.3882C257.173 50.2543 254.627 52.9438 252.868 56.4565L251.879 46.9063H241.549C242.135 51.5167 242.428 56.7126 242.428 62.494V102.232H253.418ZM328.919 103C331.996 103 334.744 102.598 337.162 101.793V92.7912C335.183 93.3766 333.242 93.6693 331.337 93.6693C328.406 93.6693 326.117 92.8826 324.468 91.3092C322.82 89.7358 321.995 87.0464 321.995 83.241V55.4685H337.272V46.9063H321.995V29.2329L310.896 33.075V46.9063H300.125V55.4685H310.896V84.1191C310.896 90.2664 312.471 94.95 315.621 98.17C318.772 101.39 323.204 103 328.919 103ZM371.341 103C376.689 103 381.415 101.829 385.518 99.4873C389.621 97.1455 392.789 93.8157 395.024 89.498C397.259 85.1803 398.376 80.1307 398.376 74.3494C398.376 68.568 397.259 63.5002 395.024 59.1459C392.789 54.7916 389.621 51.4436 385.518 49.1017C381.415 46.7599 376.689 45.589 371.341 45.589C365.919 45.589 361.157 46.7599 357.054 49.1017C352.951 51.4436 349.782 54.7916 347.547 59.1459C345.313 63.5002 344.195 68.568 344.195 74.3494C344.195 80.1307 345.313 85.1803 347.547 89.498C349.782 93.8157 352.951 97.1455 357.054 99.4873C361.157 101.829 365.919 103 371.341 103ZM371.231 94.2182C366.175 94.2182 362.274 92.535 359.526 89.1687C356.779 85.8023 355.405 80.8626 355.405 74.3494C355.405 67.9826 356.797 63.0794 359.581 59.6399C362.365 56.2004 366.285 54.4806 371.341 54.4806C376.323 54.4806 380.188 56.2004 382.935 59.6399C385.683 63.0794 387.056 67.9826 387.056 74.3494C387.056 80.8626 385.701 85.8023 382.99 89.1687C380.279 92.535 376.359 94.2182 371.231 94.2182ZM422.334 102.232V70.9464C422.334 65.8969 423.58 61.9085 426.071 58.9813C428.562 56.054 431.932 54.5904 436.182 54.5904C439.845 54.5904 442.501 55.6881 444.149 57.8835C445.798 60.079 446.622 63.5551 446.622 68.3119V102.232H457.722V70.9464C457.722 65.8969 458.949 61.9085 461.404 58.9813C463.858 56.054 467.21 54.5904 471.46 54.5904C475.123 54.5904 477.779 55.6881 479.427 57.8835C481.076 60.079 481.9 63.5551 481.9 68.3119V102.232H493V67.7631C493 52.9804 486.846 45.589 474.537 45.589C470.434 45.589 466.752 46.5404 463.492 48.4431C460.231 50.3458 457.759 52.9438 456.074 56.2369C453.436 49.1383 447.831 45.589 439.259 45.589C435.229 45.589 431.712 46.5038 428.708 48.3333C425.704 50.1629 423.397 52.7608 421.785 56.1272L420.796 46.9063H410.465C411.051 51.5167 411.344 56.7126 411.344 62.494V102.232H422.334Z" fill="#1969FF"/>
</svg>
