<svg width="2508" height="560" viewBox="0 0 2508 560" fill="none" xmlns="http://www.w3.org/2000/svg">
<path d="M798.534 373.234C829.257 373.234 859.421 362.9 877.576 348.935V259.839H794.344V298.382H832.888V321.843C821.437 327.988 810.823 330.501 798.534 330.501C764.739 330.501 744.908 304.247 744.908 272.128C744.908 235.26 768.37 213.754 796.579 213.754C817.806 213.754 833.446 222.971 844.06 233.305L877.017 205.375C856.628 181.914 825.347 169.904 796.579 169.904C733.178 169.904 696.031 214.592 696.031 272.128C696.031 336.646 741.277 373.234 798.534 373.234ZM906.429 371H950V302.292C950 281.065 960.054 270.731 975.137 270.731C989.381 270.731 996.922 277.155 996.922 299.778V371H1040.49V289.165C1040.49 245.874 1019.82 231.909 991.615 231.909C975.695 231.909 961.172 238.053 950.558 250.342H950V234.422H906.429V371ZM1136.3 373.514C1179.31 373.514 1210.04 344.746 1210.04 302.851C1210.04 260.677 1179.31 231.909 1136.3 231.909C1092.17 231.909 1062.29 261.235 1062.29 302.851C1062.29 344.187 1092.17 373.514 1136.3 373.514ZM1136.3 334.97C1118.98 334.97 1106.42 321.005 1106.42 302.851C1106.42 284.138 1118.71 270.731 1136.3 270.731C1153.34 270.731 1165.91 283.858 1165.91 302.851C1165.91 321.564 1152.78 334.97 1136.3 334.97ZM1278.43 373.514C1315.85 373.514 1334.01 355.08 1334.01 329.664C1334.01 302.851 1317.53 295.03 1287.37 284.696C1273.68 279.948 1268.65 276.876 1268.65 272.686C1268.65 267.38 1274.52 265.145 1279.55 265.145C1288.76 265.145 1300.49 269.893 1309.99 279.39L1330.66 248.946C1314.74 237.215 1299.65 231.909 1278.99 231.909C1250.5 231.909 1227.87 247.829 1227.87 275.479C1227.87 301.734 1247.98 312.906 1270.89 319.888C1287.92 325.195 1292.11 327.988 1292.11 332.457C1292.11 337.484 1287.64 340.556 1278.99 340.556C1266.42 340.556 1254.69 335.529 1243.24 325.195L1222.85 353.404C1237.93 366.811 1256.92 373.514 1278.43 373.514ZM1379.65 217.385C1394.74 217.385 1405.91 206.492 1405.91 192.248C1405.91 178.562 1394.74 167.67 1379.65 167.67C1364.57 167.67 1353.68 178.842 1353.68 192.248C1353.68 206.492 1364.57 217.385 1379.65 217.385ZM1357.87 371H1401.44V234.422H1357.87V371ZM1478.08 373.514C1515.51 373.514 1533.66 355.08 1533.66 329.664C1533.66 302.851 1517.19 295.03 1487.02 284.696C1473.34 279.948 1468.31 276.876 1468.31 272.686C1468.31 267.38 1474.17 265.145 1479.2 265.145C1488.42 265.145 1500.15 269.893 1509.64 279.39L1530.31 248.946C1514.39 237.215 1499.31 231.909 1478.64 231.909C1450.15 231.909 1427.53 247.829 1427.53 275.479C1427.53 301.734 1447.64 312.906 1470.54 319.888C1487.58 325.195 1491.77 327.988 1491.77 332.457C1491.77 337.484 1487.3 340.556 1478.64 340.556C1466.07 340.556 1454.34 335.529 1442.89 325.195L1422.5 353.404C1437.59 366.811 1456.58 373.514 1478.08 373.514ZM1721.81 373.514C1757 373.514 1784.65 356.756 1801.69 335.808L1767.61 306.482C1756.16 320.167 1740.24 328.826 1721.81 328.826C1689.41 328.826 1668.46 303.968 1668.46 272.128C1668.46 235.819 1692.76 214.592 1721.53 214.592C1740.8 214.592 1756.72 224.926 1767.33 237.495L1801.41 208.168C1779.62 181.635 1749.46 169.904 1721.53 169.904C1656.17 169.904 1619.3 215.43 1619.3 272.128C1619.3 338.043 1664.83 373.514 1721.81 373.514ZM1823.15 371H1866.73V302.013C1866.73 280.786 1876.78 270.731 1892.14 270.731C1907.5 270.731 1915.04 277.435 1915.04 299.499V371H1958.62V288.606C1958.62 245.594 1937.67 231.909 1909.46 231.909C1892.7 231.909 1877.9 238.053 1867.28 250.063L1866.73 249.784V165.435H1823.15V371ZM2044.34 373.514C2060.81 373.514 2073.1 367.928 2082.04 356.476L2082.6 356.756V371H2124.22V234.422H2080.37V248.667L2079.81 248.946C2070.31 237.774 2056.63 231.909 2042.1 231.909C2006.91 231.909 1979.82 260.956 1979.82 302.851C1979.82 345.025 2006.91 373.514 2044.34 373.514ZM2053.55 334.97C2036.24 334.97 2024.23 322.122 2024.23 302.851C2024.23 283.3 2036.8 270.452 2053.55 270.452C2069.75 270.452 2082.32 284.138 2082.32 302.851C2082.32 322.402 2069.19 334.97 2053.55 334.97ZM2176.64 217.385C2191.72 217.385 2202.9 206.492 2202.9 192.248C2202.9 178.562 2191.72 167.67 2176.64 167.67C2161.56 167.67 2150.67 178.842 2150.67 192.248C2150.67 206.492 2161.56 217.385 2176.64 217.385ZM2154.86 371H2198.43V234.422H2154.86V371ZM2230.1 371H2273.67V302.292C2273.67 281.065 2283.73 270.731 2298.81 270.731C2313.06 270.731 2320.6 277.155 2320.6 299.778V371H2364.17V289.165C2364.17 245.874 2343.5 231.909 2315.29 231.909C2299.37 231.909 2284.85 238.053 2274.23 250.342H2273.67V234.422H2230.1V371Z" fill="#04795B"/>
<path d="M270.044 312.701C284.248 312.701 297.36 307.968 307.923 299.776L221.238 213.122C213.043 223.499 208.308 236.606 208.308 250.988C208.126 285.03 235.807 312.701 270.044 312.701Z" fill="#04795B"/>
<path d="M527.913 250.805C527.913 236.606 523.178 223.499 514.983 212.94L428.298 299.593C438.679 307.785 451.791 312.518 466.177 312.518C500.232 312.7 527.913 285.03 527.913 250.805Z" fill="#04795B"/>
<path d="M571.62 156.689L533.194 195.101C545.942 210.392 553.591 229.689 553.591 251.171C553.591 299.412 514.437 338.552 466.177 338.552C444.87 338.552 425.384 330.906 410.087 318.163L368.019 360.215L325.951 318.163C310.654 330.906 291.35 338.552 269.861 338.552C221.601 338.552 182.447 299.412 182.447 251.171C182.447 229.871 190.096 210.392 202.844 195.101L183.176 175.44L164.418 156.689C142.565 192.734 129.999 234.787 129.999 279.934C129.999 411.37 236.534 517.684 367.837 517.684C499.139 517.684 605.674 411.188 605.674 279.934C606.039 234.605 593.473 192.552 571.62 156.689Z" fill="#04795B"/>
<path d="M540.114 115.728C496.954 70.399 435.764 42.0001 368.019 42.0001C300.273 42.0001 239.266 70.399 195.923 115.728C190.096 121.918 184.451 128.472 179.169 135.207L367.837 323.805L556.504 135.025C551.769 128.471 546.124 121.736 540.114 115.728ZM368.019 72.9477C423.745 72.9477 475.465 94.429 514.254 133.569L368.019 279.751L221.783 133.569C260.755 94.429 312.293 72.9477 368.019 72.9477Z" fill="#04795B"/>
</svg>
