<svg xmlns="http://www.w3.org/2000/svg" width="448" height="343" viewBox="0 0 448 343" fill="none"><path d="M393.4 292.2L393.2 292.1C392.6 293 391.9 293.9 391.3 294.8C392 293.9 392.8 293.1 393.4 292.2Z" fill="black"></path><path d="M447.8 129.6C446 57.7 387.3 0 315.1 0C279.6 0 247.5 14 223.6 36.7C199.9 14 167.9 0 132.7 0C60.5 0 1.8 58.4 0 131.2V131.7V132.2C0 187.6 20.1 236.8 38.5 270.6C47.8 287.8 57.2 301.8 64.3 311.6C67.8 316.5 70.9 320.4 73.1 323.2C74.2 324.6 75.1 325.7 75.8 326.5C76.1 326.9 76.4 327.2 76.6 327.5C76.7 327.6 76.8 327.7 76.9 327.8L77 327.9L77.1 328C92.5 345.9 119.3 347.7 137 332.1C154.6 316.5 156.4 289.4 141.1 271.5C141.1 271.5 141.1 271.5 141.1 271.4C141.1 271.3 141 271.2 140.8 271.1C140.5 270.7 140 270.1 139.2 269.2C137.8 267.4 135.6 264.6 132.9 260.8C127.5 253.3 120.2 242.4 113 229C98.2 201.8 85.2 167.5 85 132.7C85.9 106.7 107 85.9 132.8 85.9C158.8 85.9 180 106.9 180.6 133.2C180.8 139.9 182.5 146.2 185.3 151.8C191.3 167.9 206.8 179.4 225 179.4C248.4 179.4 267.4 160.4 267.4 136.9V131.2C268.3 105.5 289.4 85 315.2 85C341 85 362.1 105.6 363 131.2C362.9 159.2 353.9 186.7 343.8 208.5C338.8 219.2 333.9 227.9 330.3 233.9C328.5 236.9 327 239.1 326.1 240.5C325.6 241.2 325.3 241.7 325.1 241.9C325 242 325 242.1 324.9 242.1C324.8 242.3 324.5 242.7 324.5 242.7C332.3 232.9 344.2 226.7 357.7 226.7C381.1 226.7 400.1 245.7 400.1 269.1C400.1 277.6 397.6 285.4 393.3 292.1C393.5 292.2 393.5 292.2 393.5 292.2V292.1L393.6 292C393.7 291.9 393.7 291.8 393.8 291.7C394 291.5 394.2 291.2 394.4 290.8C394.9 290.1 395.5 289.2 396.3 288C397.9 285.7 400 282.4 402.5 278.3C407.5 270.1 414.1 258.5 420.7 244.2C433.7 216.2 447.7 175.8 447.7 130.6V130.1L447.8 129.6Z" fill="black"></path><path d="M357.6 226.7C344.2 226.7 332.2 233 324.4 242.7C318.6 249.9 315.2 259.1 315.2 269.1C315.2 292.5 334.2 311.5 357.6 311.5C371.4 311.5 383.5 304.9 391.3 294.8C392 293.9 392.6 293 393.2 292.1C397.5 285.5 400 277.6 400 269.1C400 245.7 381.1 226.7 357.6 226.7Z" fill="#B7E803"></path></svg>