<svg width="99" height="16" viewBox="0 0 99 16" fill="none" xmlns="http://www.w3.org/2000/svg">
<path d="M21.561 4.839C23.3222 4.855 24.7122 6.27832 24.6873 8.0389C24.6623 9.80012 23.2268 11.1895 21.4726 11.1505C19.7383 11.1121 18.3783 9.71948 18.3828 7.98706C18.3873 6.22712 19.8042 4.823 21.561 4.839Z" fill="#C74AE3"/>
<path d="M25.6574 14.7319C22.9061 16.9475 17.9898 16.1546 15.4433 13.1729C12.6421 9.89301 12.9692 4.97221 16.1819 2.05838C19.3555 -0.819605 24.2654 -0.660891 27.2586 2.41677C30.1641 5.40419 30.2928 10.3608 27.5735 13.1582C26.9386 12.4932 26.3031 11.827 25.6369 11.1294C26.6679 9.68822 26.9873 8.03899 26.371 6.26817C25.4507 3.62441 22.5356 2.22926 19.8771 3.13035C17.25 4.02056 15.812 6.84863 16.6324 9.51094C17.4618 12.2027 20.2752 13.7316 22.9753 12.9022C23.5128 12.7371 23.8111 12.8337 24.1586 13.2337C24.6181 13.7636 25.1499 14.2308 25.6574 14.7319ZM0 4.85125C0 4.21255 0.122236 3.61225 0.366068 3.05227C0.6099 2.49229 0.942049 2.00206 1.36252 1.58224C1.78298 1.16241 2.27257 0.830261 2.83255 0.586429C3.39253 0.342597 3.99219 0.220361 4.63153 0.220361H11.7187V3.31146H4.63153C4.41586 3.31146 4.2149 3.35114 4.02803 3.42986C3.84115 3.50922 3.67796 3.61865 3.5378 3.75817C3.39765 3.89832 3.28821 4.06152 3.2095 4.24839C3.13014 4.43527 3.0911 4.63622 3.0911 4.85189C3.0911 5.06756 3.13014 5.27044 3.2095 5.46051C3.28821 5.65059 3.39829 5.8157 3.5378 5.95586C3.67796 6.09601 3.84115 6.20545 4.02803 6.28417C4.2149 6.36352 4.41586 6.40256 4.63153 6.40256H7.72263C8.36197 6.40256 8.96291 6.52288 9.52673 6.76351C10.0906 7.00414 10.5821 7.33437 11.0025 7.7542C11.423 8.17402 11.7526 8.66617 11.9932 9.22999C12.2338 9.79381 12.3542 10.3954 12.3542 11.0341C12.3542 11.6734 12.2338 12.2731 11.9932 12.8331C11.7526 13.3931 11.4223 13.8833 11.0025 14.3031C10.5827 14.7229 10.0906 15.0551 9.52673 15.2996C8.96291 15.544 8.36133 15.6656 7.72263 15.6656H0.861412V12.5745H7.72263C7.9383 12.5745 8.13862 12.5348 8.32613 12.4561C8.513 12.3774 8.6762 12.2673 8.81635 12.1278C8.95651 11.9883 9.06594 11.8245 9.14466 11.6376C9.22338 11.4507 9.26306 11.2498 9.26306 11.0341C9.26306 10.8184 9.22338 10.6175 9.14466 10.4306C9.0653 10.2437 8.95587 10.0805 8.81635 9.94037C8.6762 9.80021 8.513 9.69078 8.32613 9.61206C8.13926 9.53334 7.9383 9.49366 7.72263 9.49366H4.63153C3.99219 9.49366 3.39253 9.37143 2.83255 9.12759C2.27257 8.88376 1.78234 8.55161 1.36252 8.13115C0.942689 7.71132 0.6099 7.21918 0.366068 6.65599C0.122236 6.09217 0 5.49059 0 4.85125ZM42.3525 15.6656H31.5382V0.219721H34.6293V12.5745H42.3519V15.6656H42.3525ZM42.7404 4.85125C42.7404 4.21255 42.8626 3.61225 43.1064 3.05227C43.3503 2.49229 43.6824 2.00206 44.1029 1.58224C44.5233 1.16241 45.0129 0.830261 45.5729 0.585789C46.1329 0.341957 46.7326 0.219721 47.3719 0.219721H54.459V3.31082H47.3719C47.1562 3.31082 46.9553 3.3505 46.7684 3.42922C46.5815 3.50858 46.4183 3.61801 46.2782 3.75753C46.138 3.89768 46.0286 4.06088 45.9499 4.24775C45.8705 4.43463 45.8315 4.63558 45.8315 4.85125C45.8315 5.06693 45.8705 5.2698 45.9499 5.45987C46.0286 5.64995 46.1387 5.81506 46.2782 5.95522C46.4183 6.09537 46.5815 6.20481 46.7684 6.28353C46.9553 6.36288 47.1562 6.40192 47.3719 6.40192H50.463C51.1023 6.40192 51.7033 6.52224 52.2671 6.76287C52.8309 7.0035 53.3224 7.33373 53.7429 7.75356C54.1634 8.17338 54.4929 8.66553 54.7336 9.22935C54.9742 9.79317 55.0945 10.3948 55.0945 11.0335C55.0945 11.6728 54.9742 12.2725 54.7336 12.8324C54.4929 13.3924 54.1627 13.8826 53.7429 14.3025C53.3231 14.7223 52.8309 15.0544 52.2671 15.2989C51.7033 15.5434 51.1017 15.665 50.463 15.665H43.6018V12.5739H50.463C50.6787 12.5739 50.8796 12.5342 51.0665 12.4555C51.2534 12.3768 51.4166 12.2667 51.5567 12.1272C51.6969 11.987 51.8063 11.8238 51.885 11.637C51.9637 11.4501 52.0034 11.2491 52.0034 11.0335C52.0034 10.8178 51.9637 10.6168 51.885 10.43C51.8057 10.2431 51.6962 10.0799 51.5567 9.93973C51.4166 9.79957 51.2534 9.69014 51.0665 9.61142C50.8796 9.5327 50.6787 9.49302 50.463 9.49302H47.3719C46.7326 9.49302 46.1329 9.37079 45.5729 9.12695C45.0129 8.88312 44.5227 8.55097 44.1029 8.13051C43.6831 7.71068 43.3503 7.21854 43.1064 6.65471C42.862 6.09217 42.7404 5.49059 42.7404 4.85125ZM69.4525 14.0823C68.7344 14.6999 67.93 15.1741 67.0397 15.5043C66.1495 15.8346 65.2267 15.9997 64.2718 15.9997C63.5397 15.9997 62.8338 15.9043 62.1554 15.7143C61.477 15.5242 60.8415 15.2548 60.2489 14.9066C59.6563 14.5585 59.1162 14.1399 58.6279 13.6516C58.1395 13.1633 57.721 12.6232 57.3729 12.0305C57.0247 11.4379 56.7553 10.8024 56.5652 10.124C56.3751 9.44566 56.2798 8.73977 56.2798 8.00763C56.2798 7.27549 56.3751 6.56768 56.5652 5.88546C56.7553 5.20324 57.0247 4.56582 57.3729 3.97384C57.721 3.38122 58.1389 2.84108 58.6279 2.35277C59.1162 1.86447 59.6563 1.44656 60.2489 1.09777C60.8415 0.749624 61.477 0.480193 62.1554 0.290119C62.8338 0.100045 63.5397 0.00468805 64.2718 0.00468805C65.2267 0.00468805 66.1495 0.167883 67.0397 0.494912C67.93 0.821942 68.7344 1.29745 69.4525 1.92207L67.8154 4.6151C67.3629 4.1268 66.8279 3.75177 66.2103 3.48938C65.5927 3.22762 64.9464 3.09643 64.2718 3.09643C63.5896 3.09643 62.9503 3.2257 62.3545 3.48426C61.758 3.74281 61.2377 4.09288 60.7929 4.53446C60.3475 4.97605 59.9961 5.49699 59.7376 6.09601C59.479 6.69567 59.3497 7.33309 59.3497 8.00763C59.3497 8.68281 59.479 9.31639 59.7376 9.90901C59.9961 10.5016 60.3475 11.02 60.7929 11.4654C61.2383 11.9109 61.7586 12.2622 62.3545 12.5208C62.9503 12.7793 63.5896 12.9086 64.2718 12.9086C64.9464 12.9086 65.5927 12.7774 66.2103 12.5156C66.8279 12.2539 67.3629 11.8782 67.8154 11.3899L69.4525 14.0823ZM83.4226 15.6656H80.3315V12.5745H74.1486V15.6656H71.0678V6.40256C71.0678 5.54819 71.229 4.74566 71.5522 3.99496C71.8754 3.2449 72.3151 2.58957 72.8719 2.02894C73.428 1.46896 74.0821 1.02738 74.8321 0.704186C75.5822 0.380996 76.3847 0.219721 77.2397 0.219721C78.0941 0.219721 78.8966 0.380996 79.6473 0.704186C80.3974 1.02738 81.0527 1.46896 81.6133 2.02894C82.1733 2.58892 82.6149 3.24426 82.9381 3.99496C83.2613 4.74566 83.4226 5.54819 83.4226 6.40256V15.6656ZM80.3315 9.49366V6.40256C80.3315 5.9789 80.2508 5.57827 80.0889 5.20132C79.9276 4.82437 79.7068 4.49606 79.4265 4.21575C79.1462 3.93544 78.8179 3.71465 78.441 3.55337C78.064 3.3921 77.6634 3.31082 77.2397 3.31082C76.8161 3.31082 76.4154 3.39146 76.0385 3.55337C75.6615 3.71465 75.3332 3.93544 75.0529 4.21575C74.7726 4.49606 74.5518 4.82437 74.3905 5.20132C74.2293 5.57827 74.148 5.9789 74.148 6.40256V9.49366H80.3315ZM98.4595 15.6656H95.1527L89.1965 5.49763V15.6656H86.1054V0.219721H89.4121L95.3684 10.3986V0.219721H98.4595V15.6656Z" fill="#00E8B5"/>
</svg>
